<?xml version="1.0" encoding="utf-8"?>
<svg width="383px" height="668px" viewbox="0 0 383 668" version="1.1" xmlns:xlink="http://www.w3.org/1999/xlink" xmlns="http://www.w3.org/2000/svg">
  <g id="Group" transform="translate(2 2)">
    <g id="XMLID_75_" transform="translate(207.60248 436.10733)">
      <path d="M18.5246 14.3145L0 14.3145L1.26302 0L19.6823 0L18.5246 14.3145Z" transform="translate(45.252033 182.19322)" id="XMLID_105_" fill="#FFAB91" fill-rule="evenodd" stroke="none" />
      <path d="M17.472 17.893L0 17.893L2.10506 0L17.472 2.21035L17.472 17.893Z" transform="translate(103.24648 183.03523)" id="XMLID_102_" fill="#FFAB91" fill-rule="evenodd" stroke="none" />
      <path d="M18.5246 14.3145L0 14.3145L1.26302 0L19.6823 0L18.5246 14.3145Z" transform="translate(45.252033 182.19322)" id="XMLID_174_" fill="none" fill-rule="evenodd" stroke="#46133C" stroke-width="3" stroke-linecap="round" stroke-linejoin="round" />
      <path d="M17.472 17.893L0 17.893L2.10506 0L17.472 2.21035L17.472 17.893Z" transform="translate(103.24648 183.03523)" id="XMLID_175_" fill="none" fill-rule="evenodd" stroke="#46133C" stroke-width="3" stroke-linecap="round" stroke-linejoin="round" />
      <path d="M2.74635 5.5784C6.21969 6.52571 -8.09471 89.3599 7.27222 182.404C15.482 183.772 28.7439 185.246 35.3748 182.509C41.7953 176.088 42.3215 51.8898 42.3215 43.5748C47.8999 44.6273 51.1628 45.9956 54.6362 49.4689C59.0568 53.8896 64.6352 174.931 64.6352 184.088C71.8977 187.561 87.8961 188.087 92.5273 186.088C96.7374 181.877 104.105 19.4718 95.7901 0C86.8436 4.94691 50.6365 11.0516 2.74635 5.5784L2.74635 5.5784Z" transform="translate(34.085464 0.10529168)" id="XMLID_177_" fill="#5F235A" fill-rule="evenodd" stroke="none" />
      <g id="XMLID_248_" transform="translate(36.831783 6.4241416E-05)" opacity="0.15">
        <path d="M0.421038 0.736785C12.3146 1.78932 23.3662 2.21035 33.3653 2.10506C23.1557 1.99984 11.8936 1.36828 0 0C0.210519 0 0.315779 0.315811 0.421038 0.736785L0.421038 0.736785Z" transform="translate(0 5.683631)" id="XMLID_249_" fill="#5F235A" fill-rule="evenodd" stroke="none" />
        <path d="M14.1039 0C14.1039 8.31502 13.4724 132.514 7.1572 138.934C5.26266 139.671 2.73656 140.092 0 140.302C5.5784 140.618 11.0516 140.408 14.6302 138.934C20.7348 132.829 21.5769 21.1559 21.5769 2.31558C19.4718 1.15776 17.1562 0.526266 14.1039 0L14.1039 0Z" transform="translate(18.103615 43.68005)" id="XMLID_250_" fill="#5F235A" fill-rule="evenodd" stroke="none" />
        <path d="M84.7314 0C83.2578 0.842012 80.9423 1.68402 78.1005 2.5261C78.4162 3.68386 -0.523632 5.89421 0.0026339 7.47301C3.68649 17.1563 79.3635 10.2096 79.574 12.2094C83.9946 55.258 77.7847 182.404 73.9956 186.193C72.7325 186.719 70.7327 187.035 68.3119 187.245C73.8903 187.561 79.0477 187.245 81.3633 186.193C85.6787 181.877 93.0464 19.4718 84.7314 0L84.7314 0Z" transform="translate(8.417616 0)" id="XMLID_251_" fill="#5F235A" fill-rule="evenodd" stroke="none" />
      </g>
      <g id="XMLID_125_" transform="translate(34.085464 0)">
        <path d="M53.9948 1.99984C53.7843 1.26305 53.5738 0.526266 53.3633 0C47.0482 3.57863 27.4711 7.57824 0 7.78876C25.1555 8.10457 44.3115 5.15743 53.9948 1.99984L53.9948 1.99984Z" transform="translate(42.53206 0)" id="XMLID_164_" fill="#5F235A" fill-rule="evenodd" stroke="none" />
        <path d="M11.1666 176.51C-3.46358 87.5706 6.64073 9.05174 11.1666 0.631493C9.27206 0.420974 4.74616 0.210455 2.74635 0C6.21969 0.947304 -8.09471 83.7815 7.27222 176.825C12.8506 177.773 20.7446 178.72 27.3756 178.404C22.2182 178.194 15.2715 177.141 11.1666 176.51L11.1666 176.51Z" transform="translate(0 5.683695)" id="XMLID_223_" fill="#FFFFFF" fill-rule="evenodd" stroke="none" />
        <path d="M21.4716 141.987C23.6819 117.147 20.3139 9.6833 11.5778 4.94691C7.26246 2.63133 5.5784 1.05253 0 0C0 0.315747 2.52607 1.36828 2.52607 1.99984C5.1574 2.94714 7.26246 4.31542 9.36752 6.42048C13.7882 10.8411 19.3666 131.882 19.3666 141.039C24.524 143.46 33.9968 144.513 40.7329 144.092C34.8388 143.986 25.2608 143.881 21.4716 141.987L21.4716 141.987Z" transform="translate(45.47907 42.943333)" id="XMLID_246_" fill="#FFFFFF" fill-rule="evenodd" stroke="none" />
      </g>
      <path d="M2.74635 5.5784C6.21969 6.52571 -8.09471 89.3599 7.27222 182.404C15.482 183.772 28.7439 185.246 35.3748 182.509C41.7953 176.088 42.3215 51.8898 42.3215 43.5748C47.8999 44.6273 51.1628 45.9956 54.6362 49.4689C59.0568 53.8896 64.6352 174.931 64.6352 184.088C71.8977 187.561 87.8961 188.087 92.5273 186.088C96.7374 181.877 104.105 19.4718 95.7901 0C86.8436 4.94691 50.6365 11.0516 2.74635 5.5784L2.74635 5.5784Z" transform="translate(34.085464 0.10529168)" id="XMLID_163_" fill="none" fill-rule="evenodd" stroke="#46133C" stroke-width="3" stroke-linecap="round" stroke-linejoin="round" />
      <path d="M6.10467 2.10506L0 0" transform="translate(70.407555 43.048557)" id="XMLID_173_" fill="none" fill-rule="evenodd" stroke="#46133C" stroke-width="3" stroke-linecap="round" stroke-linejoin="round" />
      <path d="M20.6208 22.419C20.6208 22.419 43.2502 23.7872 62.0905 20.4191C70.8265 20.4191 69.2477 1.26305 69.2477 1.26305C69.2477 1.26305 58.4067 4.73639 49.3549 2.94708C40.3031 1.15776 42.0925 0 42.0925 0C42.0925 0 6.62213 5.89415 1.88574 10.6305C-2.74539 15.2618 0.306945 22.419 20.6208 22.419L20.6208 22.419Z" transform="translate(0.0019914836 192.1922)" id="XMLID_182_" fill="#75CC9C" fill-rule="evenodd" stroke="none" />
      <g id="XMLID_294_" transform="translate(0 192.29756)">
        <path d="M7.36091 11.9988C11.8868 7.47294 36.3055 3.36805 44.7258 1.89454C40.9366 0.736785 42.0944 0 42.0944 0C42.0944 0 6.62412 5.89415 1.88773 10.6305C-1.90139 14.4196 -0.533075 19.8928 11.0448 21.6821C4.62432 19.156 2.30874 17.051 7.36091 11.9988L7.36091 11.9988Z" id="XMLID_317_" fill="#FFFFFF" fill-rule="evenodd" stroke="none" />
      </g>
      <path d="M0.0257929 25.2812C0.446799 28.7545 3.92017 36.438 21.7079 32.2279C34.2331 29.2808 35.6013 21.1763 38.1274 15.7031C40.6535 10.2299 37.3906 0.967668 37.3906 0.967668C37.3906 0.967668 35.6013 4.75675 30.0229 4.75675C22.1289 4.75675 15.0769 0.0203645 15.0769 0.0203645C14.656 -0.716356 -0.71096 18.7555 0.0257929 25.2812L0.0257929 25.2812Z" transform="translate(85.432915 194.38219)" id="XMLID_181_" fill="#75CC9C" fill-rule="evenodd" stroke="none" />
      <path d="M23.918 30.6491C6.23553 34.8592 4.55147 25.3864 4.13046 21.8078C3.6042 17.2819 11.0771 6.23032 15.7083 0.336111C15.3926 0.125592 15.182 0.0203645 15.182 0.0203645C14.761 -0.71642 -0.711184 18.7554 0.0256002 25.2811C0.446606 28.7545 3.91998 36.4379 21.7077 32.2278C27.1809 30.9647 30.549 28.6492 32.7593 26.0178C30.8647 27.1757 26.7599 30.0175 23.918 30.6491L23.918 30.6491Z" transform="translate(85.433105 194.27696)" id="XMLID_322_" fill="#FFFFFF" fill-rule="evenodd" stroke="none" />
      <path d="M20.6208 22.3411C20.6208 22.3411 43.2502 23.7094 62.0905 20.3413C70.8265 20.3413 69.2477 1.18519 69.2477 1.18519C69.2477 1.18519 58.5119 3.92175 49.3549 2.86921C45.4605 2.44818 43.566 1.18519 42.6187 0.448405C42.1977 0.132659 41.6714 -0.0778606 41.1452 0.0273668C35.5668 0.974671 6.0959 6.23733 1.88577 10.4475C-2.74539 15.1839 0.306945 22.3411 20.6208 22.3411L20.6208 22.3411Z" transform="translate(0.0019914836 192.27007)" id="XMLID_171_" fill="none" fill-rule="evenodd" stroke="#46133C" stroke-width="3" stroke-linecap="round" stroke-linejoin="round" />
      <path d="M0.208752 24.6293C0.945537 28.1027 4.10313 35.7861 21.8909 31.576C34.416 28.6289 36.8368 20.8402 38.3103 15.0512C39.7839 9.36755 37.5736 0.315811 37.5736 0.315811C37.5736 0.315811 35.7842 4.1049 30.2058 4.1049C22.3118 4.1049 16.3124 0 16.3124 0C12.5234 1.68409 -1.89631 14.946 0.208752 24.6293L0.208752 24.6293Z" transform="translate(85.249954 195.03404)" id="XMLID_176_" fill="none" fill-rule="evenodd" stroke="#46133C" stroke-width="3" stroke-linecap="round" stroke-linejoin="round" />
      <path d="M0 0C0 0 4.84165 0.631493 5.47317 5.5784" transform="translate(22.412092 194.40262)" id="XMLID_58_" fill="none" fill-rule="evenodd" stroke="#46133C" stroke-width="3" stroke-linecap="round" stroke-linejoin="round" />
      <path d="M0 0C0 0 4.84165 0.631493 5.47317 5.5784" transform="translate(27.88527 192.40279)" id="XMLID_59_" fill="none" fill-rule="evenodd" stroke="#46133C" stroke-width="3" stroke-linecap="round" stroke-linejoin="round" />
      <path d="M0 0C0 0 4.84165 0.631493 5.47317 5.5784" transform="translate(33.463673 190.92921)" id="XMLID_79_" fill="none" fill-rule="evenodd" stroke="#46133C" stroke-width="3" stroke-linecap="round" stroke-linejoin="round" />
      <path d="M0 0.640871C0 0.640871 4.31535 -1.56941 7.68346 2.21967" transform="translate(97.77337 208.91817)" id="XMLID_62_" fill="none" fill-rule="evenodd" stroke="#46133C" stroke-width="3" stroke-linecap="round" stroke-linejoin="round" />
      <path d="M0 0.640871C0 0.640871 4.31535 -1.56941 7.68346 2.21967" transform="translate(100.08888 204.91855)" id="XMLID_60_" fill="none" fill-rule="evenodd" stroke="#46133C" stroke-width="3" stroke-linecap="round" stroke-linejoin="round" />
      <path d="M0 0.640871C0 0.640871 4.31535 -1.56941 7.68346 2.21967" transform="translate(101.562454 200.91895)" id="XMLID_68_" fill="none" fill-rule="evenodd" stroke="#46133C" stroke-width="3" stroke-linecap="round" stroke-linejoin="round" />
      <path d="M0 0C0 0 7.99921 33.7862 22.9452 33.7862" transform="translate(110.82478 5.683695)" id="XMLID_101_" fill="none" fill-rule="evenodd" stroke="#46133C" stroke-width="3" stroke-linecap="round" stroke-linejoin="round" />
      <path d="M9.15704 0C9.15704 0 6.94671 22.1032 0 24.6293" transform="translate(36.094997 7.473011)" id="XMLID_112_" fill="none" fill-rule="evenodd" stroke="#46133C" stroke-width="3" stroke-linecap="round" stroke-linejoin="round" />
    </g>
    <g id="XMLID_74_" transform="translate(131.3924 256.22974)">
      <path d="M188.298 136.619L222.61 136.619C222.61 136.619 244.187 50.311 182.614 4.10487C178.72 0.210487 164.09 0 164.09 0C134.198 9.36752 124.62 29.3656 124.62 29.3656L110.937 5.1574C110.937 5.1574 94.9383 10.6306 93.2543 36.9439C74.2035 63.9939 41.7855 66.3095 22.9452 47.5744C16.7352 53.4686 0 71.0459 0 71.0459C0 71.0459 17.2615 91.465 46.9429 94.5173C77.9926 97.6749 99.78 77.7821 105.885 71.0459C110.937 76.098 119.778 146.828 107.042 180.72C106.411 182.509 107.253 184.509 109.042 185.14C114.41 186.93 127.041 189.771 151.88 189.561C169.563 189.456 201.033 183.877 201.033 183.877L188.298 136.619L188.298 136.619Z" transform="translate(1.999771 0)" id="XMLID_180_" fill="#EE406D" fill-rule="evenodd" stroke="none" />
      <path d="M24.945 0L6.94668 25.9975L0 19.8928L24.945 0Z" transform="translate(0 49.784786)" id="XMLID_145_" fill="#EE406D" fill-rule="evenodd" stroke="none" />
      <path d="M9.77912 0C9.77912 0 -6.95612 52.3108 3.35867 63.0466C8.83184 68.7303 49.249 73.3614 52.3014 74.414C55.459 75.4665 66.6158 75.3613 66.6158 75.3613L65.3527 54.9421L9.77912 0L9.77912 0Z" transform="translate(143.04842 136.61856)" id="XMLID_124_" fill="#5F235A" fill-opacity="0.15" fill-rule="evenodd" stroke="none" />
      <path d="M0 0C0 0 9.47278 19.8928 10.3148 56.0999C10.7358 76.2032 5.78892 93.57 5.78892 93.57L12.1041 97.0434C12.1041 97.0434 17.051 89.8861 17.1562 61.7835C17.2615 36.5228 10.9464 15.6827 0 0L0 0Z" transform="translate(176.71997 43.048557)" id="XMLID_252_" fill="#EE406D" fill-rule="evenodd" stroke="none" />
      <g id="XMLID_127_" transform="translate(42.943268 0.3158108)">
        <path d="M11.7884 23.261C11.7884 23.261 12.7356 21.3664 14.8407 18.4193L4.42064 0C4.42064 0 2.5261 0.631525 0 2.52607L11.7884 23.261L11.7884 23.261Z" transform="translate(65.57269 4.8416185)" id="XMLID_210_" fill="#EE406D" fill-rule="evenodd" stroke="none" />
        <path d="M63.7834 3.78912C61.3626 1.36831 54.9421 0.421006 50.4162 0C53.3633 0.631525 56.0999 1.5788 57.4682 2.94708C119.041 49.1532 97.4644 135.461 97.4644 135.461L63.1519 135.461L75.8875 182.404C75.8875 182.404 44.4168 187.982 26.7343 188.087C15.4722 188.193 6.73619 187.666 0 186.824C7.1572 188.087 17.7878 189.035 33.0495 188.929C50.732 188.824 82.2027 183.246 82.2027 183.246L69.4671 136.303L103.78 136.303C103.78 136.303 125.356 49.9952 63.7834 3.78912L63.7834 3.78912Z" transform="translate(77.88725 0)" id="XMLID_217_" fill="#EE406D" fill-rule="evenodd" stroke="none" />
        <path d="M62.5204 0C56.4157 6.7362 30.8392 30.4182 0 27.4711C1.89454 27.7868 3.89438 28.1026 5.99944 28.3131C31.8917 30.9444 55.6789 13.2619 64.9412 4.84165C64.2044 2.21032 63.2571 0.631525 62.5204 0L62.5204 0Z" transform="translate(0 65.78321)" id="XMLID_221_" fill="#EE406D" fill-rule="evenodd" stroke="none" />
      </g>
      <g id="XMLID_114_" transform="translate(1.9998353 0)">
        <path d="M2.52604 31.7865C2.52604 31.7865 12.4198 11.1568 43.1537 1.5788C43.1537 1.5788 49.1532 1.68406 54.6264 2.73659C49.1532 0.210519 38.2069 0 38.2069 0C14.2092 7.47298 3.26282 21.8926 0 27.2606L2.52604 31.7865L2.52604 31.7865Z" transform="translate(125.88273 0)" id="XMLID_119_" fill="#EE406D" fill-rule="evenodd" stroke="none" />
        <path d="M22.9451 44.6273C42.3117 63.9939 76.519 62.2046 96.0961 34.4178C97.4643 12.9461 107.463 3.89435 111.779 1.47354L110.937 0C110.937 0 94.9383 5.47318 93.2543 31.7865C74.2034 58.8365 41.7855 61.1521 22.9452 42.417C16.7352 48.3112 0 65.8885 0 65.8885C0 65.8885 0 64.7307 1.15779 65.8885C5.78889 60.9416 17.7877 49.469 22.9451 44.6273L22.9451 44.6273Z" transform="translate(0 5.157429)" id="XMLID_120_" fill="#FFFFFF" fill-rule="evenodd" stroke="none" />
        <path d="M2.2083 0C1.89255 0.315747 1.47151 0.736785 1.15577 1.15779C6.10268 18.7351 11.3653 76.3085 0.208495 105.885C-0.42303 107.674 0.419015 109.674 2.2083 110.305C2.73456 110.516 3.47135 110.726 4.10284 110.937C16.207 75.1508 7.36569 5.05217 2.2083 0L2.2083 0Z" transform="translate(106.83392 74.72973)" id="XMLID_123_" fill="#FFFFFF" fill-rule="evenodd" stroke="none" />
      </g>
      <path d="M188.298 136.619L222.61 136.619C222.61 136.619 244.187 50.311 182.614 4.10487C178.72 0.210487 164.09 0 164.09 0C134.198 9.36752 124.62 29.3656 124.62 29.3656L110.937 5.1574C110.937 5.1574 94.9383 10.6306 93.2543 36.9439C74.2035 63.9939 41.7855 66.3095 22.9452 47.5744C16.7352 53.4686 0 71.0459 0 71.0459C0 71.0459 17.2615 91.465 46.9429 94.5173C77.9926 97.6749 99.78 77.7821 105.885 71.0459C110.937 76.098 119.778 146.828 107.042 180.72C106.411 182.509 107.253 184.509 109.042 185.14C114.41 186.93 127.041 189.771 151.88 189.561C169.563 189.456 201.033 183.877 201.033 183.877L188.298 136.619L188.298 136.619Z" transform="translate(1.999771 0)" id="XMLID_6_" fill="none" fill-rule="evenodd" stroke="#46133C" stroke-width="3" stroke-linecap="round" stroke-linejoin="round" />
      <g id="XMLID_42_" transform="translate(147.9679 130.05597)">
        <path d="M82.7425 72.03C59.0605 71.5038 35.5891 69.8198 12.0123 67.1884C4.96037 66.3464 -0.302288 60.1365 0.0134907 53.0845C0.750275 39.2963 2.11855 25.5081 3.90787 11.72C4.85514 4.66804 11.0651 -0.489327 18.2223 0.0369388C41.378 1.61574 64.5337 4.35229 87.7946 7.93092C94.5308 8.98346 99.4777 14.8776 99.2672 21.7191C98.8462 34.56 97.8989 47.2956 96.5307 60.0312C95.6886 66.9778 89.6891 72.2405 82.7425 72.03L82.7425 72.03Z" transform="translate(0.10972433 1.1578231)" id="XMLID_38_" fill="#FFA45A" fill-rule="evenodd" stroke="none" />
        <path d="M82.7425 72.03C59.0605 71.5038 35.5891 69.8198 12.0123 67.1884C4.96037 66.3464 -0.302288 60.1365 0.0134907 53.0845C0.750275 39.2963 2.11855 25.5081 3.90787 11.72C4.85514 4.66804 11.0651 -0.489327 18.2223 0.0369388C41.378 1.61574 64.5337 4.35229 87.7946 7.93092C94.5308 8.98346 99.4777 14.8776 99.2672 21.7191C98.8462 34.56 97.8989 47.2956 96.5307 60.0312C95.6886 66.9778 89.6891 72.2405 82.7425 72.03L82.7425 72.03Z" transform="translate(0.10972433 1.1578231)" id="XMLID_92_" fill="#FFA45A" fill-rule="evenodd" stroke="none" />
        <path d="M4.75435 55.7158C5.49113 41.9277 6.85941 28.1395 8.64872 14.3513C9.596 7.29937 15.8059 2.142 22.9631 2.66827C46.1188 4.24706 69.2745 6.98362 92.5354 10.5623C93.2722 10.6675 94.009 10.878 94.6405 11.0885C92.7459 9.50972 90.4303 8.35196 87.799 7.93092C64.5381 4.35229 41.3824 1.61574 18.2267 0.0369388C11.1747 -0.489327 4.85954 4.6681 3.91227 11.72C2.12295 25.5081 0.859935 39.2963 0.0178912 53.0845C-0.297855 59.2944 3.59649 64.7676 9.38541 66.6622C6.33314 64.0308 4.54386 60.0312 4.75435 55.7158L4.75435 55.7158Z" id="XMLID_185_" fill="#FFFFFF" fill-rule="evenodd" stroke="none" />
        <path d="M82.7425 72.03C59.0605 71.5038 35.5891 69.8198 12.0123 67.1884C4.96037 66.3464 -0.302288 60.1365 0.0134907 53.0845C0.750275 39.2963 2.11855 25.5081 3.90787 11.72C4.85514 4.66804 11.0651 -0.489327 18.2223 0.0369388C41.378 1.61574 64.5337 4.35229 87.7946 7.93092C94.5308 8.98346 99.4777 14.8776 99.2672 21.7191C98.8462 34.56 97.8989 47.2956 96.5307 60.0312C95.6886 66.9778 89.6891 72.2405 82.7425 72.03L82.7425 72.03Z" transform="translate(0.10972433 1.1578231)" id="XMLID_29_" fill="none" fill-rule="evenodd" stroke="#46133C" stroke-width="3" stroke-linecap="round" stroke-linejoin="round" />
      </g>
      <path d="M15.2617 95.8856C28.6289 33.0495 0 0 0 0" transform="translate(175.03595 40.732914)" id="XMLID_20_" fill="none" fill-rule="evenodd" stroke="#46133C" stroke-width="3" stroke-linecap="round" stroke-linejoin="round" />
      <path d="M0 0C0 0 2.63133 1.36828 4.63113 7.1572" transform="translate(103.2533 63.783375)" id="XMLID_143_" fill="none" fill-rule="evenodd" stroke="#46133C" stroke-width="4" stroke-linecap="round" stroke-linejoin="round" />
      <path d="M1.99981 0C1.99981 0 3.26286 6.63094 0 18.735" transform="translate(140.0919 101.77979)" id="XMLID_95_" fill="none" fill-rule="evenodd" stroke="#46133C" stroke-width="3" stroke-linecap="round" stroke-linejoin="round" />
    </g>
    <path d="M24.6922 0C24.6922 0 25.008 13.6829 25.008 19.5771C25.008 25.4713 5.53613 44.5221 5.53613 44.5221C5.53613 44.5221 -2.14733 33.1548 0.589222 17.472C3.32581 1.78932 18.4823 0 18.4823 0L24.6922 0L24.6922 0Z" transform="translate(242.37152 224.33807)" id="XMLID_37_" fill="#CC1F49" fill-rule="evenodd" stroke="none" />
    <g id="XMLID_31_" transform="translate(172.44098 30.882751)">
      <path d="M77.4664 240.609C77.4664 233.451 84.8341 209.769 74.2036 187.456C66.8358 172.089 41.2593 167.352 26.6291 155.564C-15.8931 121.252 5.26275 26.9448 5.26275 26.9448C5.26275 26.9448 22.2085 0 77.5716 0C95.991 0 112.305 7.89398 127.251 53.3633C142.092 98.8327 128.514 124.093 128.514 124.093C120.725 139.987 113.042 178.404 134.093 215.032L138.513 221.663C138.513 221.663 96.0962 239.135 90.6231 256.502C85.1499 273.763 77.4664 240.609 77.4664 240.609L77.4664 240.609Z" transform="translate(0 0.10522744)" id="XMLID_32_" fill="#FFAB91" fill-rule="evenodd" stroke="none" />
      <path d="M128.725 215.032C107.674 178.404 115.357 139.987 123.146 124.093C123.146 124.093 136.829 98.8327 121.883 53.3633C107.042 7.89399 90.6229 0 72.2036 0C50.1005 0 34.102 4.31539 22.8399 9.47278C33.3652 5.78892 46.9429 3.15759 64.4149 3.15759C68.5198 3.15759 72.5194 3.5786 76.519 4.73639C62.8361 5.99943 4.52587 17.3668 0 27.0501C0 27.0501 6.31519 46.5219 30.4182 54.3106C46.9429 59.6785 64.9412 57.9945 80.3081 56.5209C85.7813 58.205 86.6233 75.0455 118.199 84.3078C129.882 87.7811 113.779 134.514 111.253 148.512C108.832 161.774 110.516 188.508 116.515 202.612C120.41 211.875 116.305 210.085 108.095 215.769C105.569 217.453 94.6226 224.505 93.9911 225.452C85.9918 236.188 94.5173 232.715 78.0978 258.081C80.4134 262.291 83.0447 263.87 85.255 256.607C90.6229 239.24 133.145 221.768 133.145 221.768L128.725 215.032L128.725 215.032Z" transform="translate(5.262786 0)" id="XMLID_144_" fill="#FFAB91" fill-opacity="0.43" fill-rule="evenodd" stroke="none" />
      <path d="M80.203 219.242C80.203 211.559 90.0968 187.351 78.7295 163.458C70.8355 147.039 45.7852 141.144 30.2078 128.514C-7.05185 98.5169 3.15769 25.6818 7.36782 0C5.89428 1.68406 5.26275 2.73659 5.26275 2.73659C5.26275 2.73659 -15.8931 97.1487 26.6291 131.356C41.2593 143.144 66.8358 147.881 74.2036 163.248C84.8341 185.667 77.4664 209.243 77.4664 216.4C77.4664 216.4 79.5715 226.399 81.5713 229.978C79.2557 223.873 80.203 219.242 80.203 219.242L80.203 219.242Z" transform="translate(0.10522745 24.208221)" id="XMLID_98_" fill="#FFFFFF" fill-rule="evenodd" stroke="none" />
      <path d="M77.4664 240.609C77.4664 233.451 84.8341 209.769 74.2036 187.456C66.8358 172.089 41.2593 167.352 26.6291 155.564C-15.8931 121.252 5.26275 26.9448 5.26275 26.9448C5.26275 26.9448 22.2085 0 77.5716 0C95.991 0 112.305 7.89398 127.251 53.3633C142.092 98.8327 128.514 124.093 128.514 124.093C120.725 139.987 113.042 178.404 134.093 215.032L138.513 221.663C138.513 221.663 96.0962 239.135 90.6231 256.502C85.1499 273.763 77.4664 240.609 77.4664 240.609L77.4664 240.609Z" transform="translate(0 0.10522744)" id="XMLID_3_" fill="none" fill-rule="evenodd" stroke="#46133C" stroke-width="3" stroke-linecap="round" stroke-linejoin="round" />
    </g>
    <path d="M6.84145 0C6.84145 0 7.26246 10.3148 0 19.5771C1.89454 24.3135 10.9463 23.5767 10.9463 23.5767" transform="translate(197.07037 121.08472)" id="XMLID_7_" fill="none" fill-rule="evenodd" stroke="#46133C" stroke-width="3" stroke-linecap="round" stroke-linejoin="round" />
    <g id="XMLID_69_" transform="translate(193.80707 152.87122)">
      <path d="M0.736753 4.21012C0.631493 4.94691 15.0512 9.15703 23.0504 0C18.8403 10.1043 13.0514 14.5249 0 14.5249" transform="translate(5.3683333 0)" id="XMLID_57_" fill="#FF5757" fill-rule="evenodd" stroke="none" />
      <path d="M0.000417569 2.52607C-0.104842 3.26285 20.4195 9.157 28.3135 0C24.1034 10.1043 18.3145 14.5249 5.26307 14.5249" id="XMLID_12_" fill="none" fill-rule="evenodd" stroke="#46133C" stroke-width="3" stroke-linecap="round" stroke-linejoin="round" />
      <path d="M0 10.3148C0 10.3148 3.68386 4.84162 0 0" transform="translate(5.263106 4.210125)" id="XMLID_14_" fill="none" fill-rule="evenodd" stroke="#46133C" stroke-width="3" stroke-linecap="round" stroke-linejoin="round" />
    </g>
    <path d="M27.5718 38.6766L10.3103 36.3611C3.78462 35.5191 -0.74125 28.6776 0.100763 21.2046L1.15329 12.4686C1.99531 4.99564 7.99475 -0.582766 14.5205 0.0487432L31.782 1.7328C38.6234 2.36433 43.5703 9.31102 42.623 17.0997L41.5705 26.2568C40.7285 34.0455 34.4133 39.6239 27.5718 38.6766L27.5718 38.6766Z" transform="translate(212.33661 95.77521)" id="XMLID_93_" fill="#FFFFFF" fill-opacity="0.71" fill-rule="evenodd" stroke="none" />
    <path d="M32.115 39.2648L12.6431 38.0017C5.27541 37.5807 -0.302995 30.7392 0.0127519 22.9505L0.433758 13.7935C0.854764 5.8995 7.06469 -0.205187 14.4324 0.00531598L33.9042 0.636841C41.5877 0.847344 47.6924 7.6888 47.2714 15.8985L46.8504 25.4766C46.4294 33.5811 39.7984 39.791 32.115 39.2648L32.115 39.2648Z" transform="translate(157.69293 92.02954)" id="XMLID_73_" fill="#FFFFFF" fill-opacity="0.71" fill-rule="evenodd" stroke="none" />
    <g id="XMLID_71_" transform="translate(190.54468 105.823)">
      <path d="M0 5.89418C0 2.63891 1.46083 0 3.26285 0C5.06487 0 6.52569 2.63891 6.52569 5.89418C6.52569 9.14944 5.06487 11.7884 3.26285 11.7884C1.46083 11.7884 0 9.14944 0 5.89418Z" transform="translate(31.89168 3.4733415)" id="XMLID_13_" fill="#46133C" fill-rule="evenodd" stroke="none" />
      <path d="M0 5.89418C0 2.63891 1.46083 0 3.26285 0C5.06487 0 6.52569 2.63891 6.52569 5.89418C6.52569 9.14944 5.06487 11.7884 3.26285 11.7884C1.46083 11.7884 0 9.14944 0 5.89418Z" id="XMLID_17_" fill="#46133C" fill-rule="evenodd" stroke="none" />
    </g>
    <path d="M7.84577 0C7.84577 0 -5.10035 16.63 2.26737 34.4178C7.53003 47.0482 10.1614 57.1525 15.9503 65.4675C22.897 56.8367 29.2122 38.3122 48.8945 30.2077C68.4716 22.2084 65.9455 17.472 65.9455 14.7354C65.9455 12.2094 62.5774 5.1574 58.1568 5.1574" transform="translate(242.06165 226.96942)" id="XMLID_16_" fill="none" fill-rule="evenodd" stroke="#46133C" stroke-width="3" stroke-linecap="round" stroke-linejoin="round" />
    <path d="M9.68329 0C9.68329 0 0 11.3673 0 47.7849" transform="translate(267.37946 279.38538)" id="XMLID_27_" fill="none" fill-rule="evenodd" stroke="#46133C" stroke-width="3" stroke-linecap="round" stroke-linejoin="round" />
    <path d="M2.01149 0C2.01149 0 -2.51437 27.2606 2.01149 31.7865" transform="translate(247.89594 271.59668)" id="XMLID_28_" fill="none" fill-rule="evenodd" stroke="#46133C" stroke-width="3" stroke-linecap="round" stroke-linejoin="round" />
    <path d="M3.46528 0C3.46528 0 -2.53415 6.42045 1.25496 16.1037C6.0966 28.2078 3.46528 31.2602 1.25496 37.2596" transform="translate(30.673218 181.92102)" id="XMLID_36_" fill="none" fill-rule="evenodd" stroke="#46133C" stroke-width="3" stroke-linecap="round" stroke-linejoin="round" />
    <g id="XMLID_65_" transform="translate(167.49164 3.5496216)">
      <path d="M103.045 74.5178C105.466 76.9387 96.3092 82.3065 109.676 95.6737C123.149 109.146 129.043 109.462 129.043 120.092C129.043 130.723 130.411 155.879 140.41 160.404C150.409 164.93 173.249 129.776 170.092 94.0949C167.987 71.5707 158.514 53.1515 147.673 45.7837C142.936 20.2072 115.676 4.41925 95.0462 0.945891C63.9965 -4.21151 46.4192 13.471 44.9457 11.9975C33.5783 15.4708 24.4213 15.9971 17.4746 15.2603C6.84402 14.2078 -1.78671 23.7858 0.318348 34.2059L0.318348 34.3111C4.63373 55.046 21.4742 65.8871 26.5264 69.1499C36.8412 75.7809 46.4192 77.6755 49.0505 78.2017C59.3653 79.991 68.4171 78.6227 76.4164 77.465C91.4675 75.2546 100.309 71.676 103.045 74.5178L103.045 74.5178Z" transform="translate(0.10529168 0.49504435)" id="XMLID_30_" fill="#6D524E" fill-rule="evenodd" stroke="none" />
      <path d="M103.045 74.5178C105.466 76.9387 96.3092 82.3065 109.676 95.6737C123.149 109.146 129.043 109.462 129.043 120.092C129.043 130.723 130.411 155.879 140.41 160.404C150.409 164.93 173.249 129.776 170.092 94.0949C167.987 71.5707 158.514 53.1515 147.673 45.7837C142.936 20.2072 115.676 4.41925 95.0462 0.945891C63.9965 -4.21151 46.4192 13.471 44.9457 11.9975C33.5783 15.4708 24.4213 15.9971 17.4746 15.2603C6.84402 14.2078 -1.78671 23.7858 0.318348 34.2059L0.318348 34.3111C4.63373 55.046 21.4742 65.8871 26.5264 69.1499C36.8412 75.7809 46.4192 77.6755 49.0505 78.2017C59.3653 79.991 68.4171 78.6227 76.4164 77.465C91.4675 75.2546 100.309 71.676 103.045 74.5178L103.045 74.5178Z" transform="translate(0.10529168 0.49504435)" id="XMLID_4_" fill="#5F2E50" fill-rule="evenodd" stroke="none" />
      <g id="XMLID_121_" transform="translate(7.8966193 23.544094)" opacity="0.34">
        <path d="M11.1568 20.3139C9.26226 12.5251 5.26265 5.78892 0 0C3.47334 5.05215 6.10466 10.8411 7.26249 17.1563C8.52547 17.9983 9.89375 19.0508 11.1568 20.3139L11.1568 20.3139Z" transform="translate(128.09308 0)" id="XMLID_122_" fill="#5F2E50" fill-rule="evenodd" stroke="none" />
        <path d="M96.7276 16.9458C93.991 14.2092 79.1503 17.7878 64.0992 20.1034C56.0999 21.3664 47.1534 22.7347 36.7333 20.8401C34.102 20.4191 24.524 18.5246 14.2092 11.7883C11.5778 10.1043 5.5784 6.20993 0 0C6.63093 9.68329 15.2617 15.2617 18.735 17.472C29.0498 24.103 38.6279 25.9975 41.2592 26.5238C51.574 28.3131 60.6258 26.9448 68.625 25.787C78.5188 24.3135 85.7813 22.2084 90.3072 21.7874C99.1485 21.3664 97.6749 17.893 96.7276 16.9458L96.7276 16.9458Z" transform="translate(0 28.839384)" id="XMLID_135_" fill="#5F2E50" fill-rule="evenodd" stroke="none" />
        <path d="M0.736785 0.736769C0.526266 0.526266 0.315779 0.210503 0 0C1.15779 1.89456 2.84185 3.99962 5.1574 6.31519C11.1568 12.3146 15.6827 15.788 18.8403 18.6298C16.5248 13.5776 10.7358 10.8411 0.736785 0.736769L0.736785 0.736769Z" transform="translate(96.72766 66.20425)" id="XMLID_137_" fill="#5F2E50" fill-rule="evenodd" stroke="none" />
        <path d="M35.4703 43.5748C33.7862 24.945 26.9448 9.05176 18.5245 0C24.8397 9.36752 29.6813 22.6294 31.0497 37.8911C34.3125 73.4667 11.3673 108.621 1.36828 104.201C0.842012 103.99 0.420974 103.674 0 103.359C1.47357 106.411 3.47334 108.727 5.89415 109.779C15.8932 114.305 38.7331 79.1503 35.4703 43.5748L35.4703 43.5748Z" transform="translate(126.7248 27.471107)" id="XMLID_138_" fill="#5F2E50" fill-rule="evenodd" stroke="none" />
      </g>
      <g id="XMLID_115_" transform="translate(0 0.6002718)">
        <path d="M5.26526 39.0475L5.26526 38.9423C3.1602 28.5222 11.791 18.8389 22.4215 19.9967C29.3682 20.7335 37.1569 18.8389 48.5243 15.3656C52.2081 13.1552 68.1014 0.103862 99.151 5.36652C110.624 7.26108 125.043 13.471 135.569 22.5228C124.517 10.6292 108.413 3.15621 95.0462 0.945891C63.9965 -4.21151 46.4192 13.471 44.9457 11.9975C33.5783 15.4708 24.4213 15.9971 17.4746 15.2603C6.84402 14.2078 -1.78671 23.7858 0.318348 34.2059L0.318348 34.3111C3.05494 47.6783 11.0542 56.9406 17.7904 62.7295C12.5277 57.0458 7.37032 49.2571 5.26526 39.0475L5.26526 39.0475Z" id="XMLID_117_" fill="#FFFFFF" fill-rule="evenodd" stroke="none" />
        <path d="M0.105292 0.842012C0.631559 1.26302 1.15783 1.57878 1.78932 1.9998C1.15783 1.26303 0.631559 0.631509 0 0C6.42416e-05 0.315746 6.42416e-05 0.526249 0.105292 0.842012L0.105292 0.842012Z" transform="translate(152.51433 49.678143)" id="XMLID_118_" fill="#5F2E50" fill-rule="evenodd" stroke="none" />
      </g>
      <path d="M39.7883 14.2818C32.5258 16.5974 23.474 16.3869 17.4746 15.7553C6.84402 14.7028 -1.78671 24.2808 0.318348 34.7009L0.318348 34.8062C4.63373 55.541 21.4742 66.3821 26.5264 69.6449C36.8412 76.2759 46.4192 78.1704 49.0505 78.6967C59.3653 80.486 68.4171 79.1177 76.4164 77.9599C91.5728 75.6444 100.309 72.0658 103.151 74.8024C105.571 77.2232 96.4144 82.5911 109.782 95.9582C123.254 109.431 129.148 109.746 129.148 120.377C129.148 131.008 130.516 156.163 140.515 160.689C150.515 165.215 173.354 130.06 170.197 94.3794C168.092 71.8553 158.619 53.436 147.778 46.0682C143.042 20.4917 115.781 4.70376 95.1514 1.2304C64.1017 -3.927 52.6291 8.59812 45.7877 11.7557" id="XMLID_130_" fill="none" fill-rule="evenodd" stroke="#46133C" stroke-width="3" stroke-linecap="round" stroke-linejoin="round" />
      <path d="M17.3668 0.226226C16.209 0.541989 3.89438 -3.14187 0 10.541" transform="translate(104.20324 64.682304)" id="XMLID_8_" fill="none" fill-rule="evenodd" stroke="#46133C" stroke-width="3" stroke-linecap="round" stroke-linejoin="round" />
    </g>
    <g id="XMLID_9_" transform="translate(273.25415 218.5149)">
      <path d="M23.1752 3.50761C23.1752 3.50761 30.5429 -5.75465 42.0155 5.82319C53.5934 17.401 61.1716 17.6116 69.8024 29.8209C79.6962 43.8196 79.6962 63.1862 69.6971 65.607C67.2763 66.2385 60.7506 56.1342 54.5407 49.6085C48.3307 43.0828 38.9632 38.8726 34.8583 42.8723C30.7534 46.8719 14.8602 60.8706 1.80885 47.8192C-9.34799 36.6624 34.7531 31.505 34.7531 23.2952C34.753 14.9802 25.596 14.7697 23.1752 3.50761L23.1752 3.50761Z" id="XMLID_77_" fill="#FF3B61" fill-rule="evenodd" stroke="none" />
    </g>
    <g id="XMLID_146_" transform="translate(274.11566 218.75964)">
      <path d="M29.7866 1.6671C23.8924 9.24533 10.7358 11.4556 0 9.03482C0.210519 9.35056 0.526266 9.7716 0.947272 10.0873C13.9987 23.1387 31.8917 7.2455 35.9966 3.14063C37.9964 1.14083 48.4165 5.14044 53.6791 11.8766C49.7847 1.35135 33.0495 -2.54303 29.7866 1.6671L29.7866 1.6671Z" transform="translate(0 37.487053)" id="XMLID_318_" fill="#FF3B61" fill-rule="evenodd" stroke="none" />
      <path d="M36.8386 29.5761C28.2078 17.3667 20.6296 17.1563 9.05175 5.5784C5.5784 2.10506 2.63133 0.526266 0 0C11.2621 10.9463 18.735 11.3673 27.1553 23.3662C36.207 36.2071 36.9438 53.7844 29.1551 58.3103C32.5233 62.4151 35.2598 65.678 36.7334 65.3622C46.7324 62.8361 46.7324 43.4695 36.8386 29.5761L36.8386 29.5761Z" transform="translate(32.102215 0)" id="XMLID_319_" fill="#FF3B61" fill-rule="evenodd" stroke="none" />
    </g>
    <g id="XMLID_76_" transform="translate(273.25415 218.5149)">
      <path d="M23.1752 3.50761C23.1752 3.50761 30.5429 -5.75465 42.0155 5.82319C53.5934 17.401 61.1716 17.6116 69.8024 29.8209C79.6962 43.8196 79.6962 63.1862 69.6971 65.607C67.2763 66.2385 60.7506 56.1342 54.5407 49.6085C48.3307 43.0828 38.9632 38.8726 34.8583 42.8723C30.7534 46.8719 14.8602 60.8706 1.80885 47.8192C-9.34799 36.6624 34.7531 31.505 34.7531 23.2952C34.753 14.9802 25.596 14.7697 23.1752 3.50761L23.1752 3.50761Z" id="XMLID_19_" fill="none" fill-rule="evenodd" stroke="#46133C" stroke-width="3" stroke-linecap="round" stroke-linejoin="round" />
    </g>
    <g id="XMLID_78_" transform="translate(294.8139 411.79395)">
      <path d="M14.351 47.6796C8.56209 44.522 14.5615 32.6285 14.5615 32.6285C12.3512 34.8387 8.35157 35.5755 3.19421 35.5755C-1.96315 35.5755 -0.700167 31.3654 5.72031 25.0502C12.1407 18.6298 16.1404 16.7352 19.6137 14.946C29.9285 9.78853 28.034 0.736785 28.034 0.736785L53.1895 0C53.1895 0 49.5056 10.7358 50.7687 13.2619C58.0312 28.313 45.8218 43.9958 44.9798 45.7851C43.6115 48.6269 37.5068 50.311 34.2439 48.6269C29.0865 51.4688 22.0346 48.7322 21.7188 48.1007C19.2979 49.4689 15.9298 48.6269 14.351 47.6796L14.351 47.6796Z" id="XMLID_26_" fill="#FFAB91" fill-rule="evenodd" stroke="none" />
      <path d="M14.351 47.6796C8.56209 44.522 14.5615 32.6285 14.5615 32.6285C12.3512 34.8387 8.35157 35.5755 3.19421 35.5755C-1.96315 35.5755 -0.700167 31.3654 5.72031 25.0502C12.1407 18.6298 16.1404 16.7352 19.6137 14.946C29.9285 9.78853 28.034 0.736785 28.034 0.736785L53.1895 0C53.1895 0 49.5056 10.7358 50.7687 13.2619C58.0312 28.313 45.8218 43.9958 44.9798 45.7851C43.6115 48.6269 37.5068 50.311 34.2439 48.6269C29.0865 51.4688 22.0346 48.7322 21.7188 48.1007C19.2979 49.4689 15.9298 48.6269 14.351 47.6796L14.351 47.6796Z" id="XMLID_136_" fill="#FFAB91" fill-rule="evenodd" stroke="none" />
      <g id="XMLID_167_" transform="translate(0.10529167 0.1052274)">
        <path d="M4.66772 28.1026C11.6144 21.1559 16.7718 19.3666 23.5081 15.788C32.7703 10.8411 31.5073 2.31558 31.2968 0L28.034 0.736785C28.034 0.736785 29.9285 9.78853 19.6137 14.946C16.1404 16.7353 12.1408 18.6298 5.72031 25.0502C-0.700135 31.4706 -1.96315 35.5755 3.19424 35.5755L3.19424 35.5755C1.93113 33.681 0.457592 32.2074 4.66772 28.1026L4.66772 28.1026Z" id="XMLID_168_" fill="#FFFFFF" fill-rule="evenodd" stroke="none" />
      </g>
      <g id="XMLID_159_" transform="translate(2.5627184 0.1052274)" opacity="0.43">
        <path d="M4.31538 0C3.26285 1.05253 1.78932 1.78932 0 2.31558C0.210519 2.31558 0.421006 2.31558 0.631525 2.31558C1.5788 2.31558 2.42084 2.31558 3.26285 2.21035C3.89435 0.842012 4.31538 0 4.31538 0L4.31538 0Z" transform="translate(0 33.259953)" id="XMLID_162_" fill="#FFAB91" fill-rule="evenodd" stroke="none" />
        <path d="M16.3142 0L10.3148 0.210519C9.36749 3.26288 7.05197 11.9989 8.1045 14.2092C15.788 30.1024 5.78892 51.2583 0 49.3637C3.15759 49.5742 6.94668 47.9954 7.99921 45.8904C8.84122 44.1011 21.0506 28.4184 13.7881 13.3672C12.6304 10.7358 16.3142 0 16.3142 0L16.3142 0Z" transform="translate(34.312492 0)" id="XMLID_165_" fill="#FFAB91" fill-rule="evenodd" stroke="none" />
      </g>
      <path d="M13.3895 47.6796C7.60056 44.522 13.6 32.6285 13.6 32.6285C11.3897 34.8387 7.17959 37.1543 2.23268 35.5755C-0.609169 34.6282 -1.6617 31.3654 4.75878 25.0502C11.1792 18.6298 15.1789 16.7352 18.6522 14.946C28.967 9.78853 27.0725 0.736785 27.0725 0.736785L52.228 0C52.228 0 48.5441 10.7358 49.8072 13.2619C57.0697 28.313 44.8603 43.9958 44.0182 45.7851C42.65 48.6269 36.5453 50.311 33.2824 48.6269C28.125 51.4688 21.0731 48.7322 20.7573 48.1007C18.3364 49.4689 14.9683 48.6269 13.3895 47.6796L13.3895 47.6796Z" transform="translate(0.96156543 0)" id="XMLID_43_" fill="none" fill-rule="evenodd" stroke="#46133C" stroke-width="3" stroke-linecap="round" stroke-linejoin="round" />
      <path d="M1.89454 0C1.89454 0 1.5788 2.10506 0 4.52587" transform="translate(21.7188 43.679974)" id="XMLID_178_" fill="none" fill-rule="evenodd" stroke="#46133C" stroke-width="3" stroke-linecap="round" stroke-linejoin="round" />
      <path d="M1.05253 0C1.05253 0 0 2.84185 0 5.5784" transform="translate(34.24388 43.153706)" id="XMLID_179_" fill="none" fill-rule="evenodd" stroke="#46133C" stroke-width="3" stroke-linecap="round" stroke-linejoin="round" />
    </g>
    <path d="M1.12262 2.92369C1.12262 2.92369 11.0164 -1.60218 25.7519 0.608109C40.4873 2.92369 44.1712 2.92369 44.1712 2.92369L39.8558 21.9745C39.8558 21.9745 3.64872 21.9745 1.12268 21.9745C-1.40342 21.9745 1.12268 18.8169 1.12268 18.8169L1.12262 2.92369L1.12262 2.92369L1.12262 2.92369Z" transform="translate(315.51532 389.92462)" id="XMLID_39_" fill="#FF3B61" fill-rule="evenodd" stroke="none" />
    <path d="M5.64856 18.7909L5.64856 2.89767C5.64856 2.89767 11.0164 0.476864 19.7525 0.0558258C8.38518 -0.47044 1.12268 2.89767 1.12268 2.89767L1.12268 18.7909C1.12268 18.7909 -1.40342 21.9485 1.12268 21.9485C1.64895 21.9485 3.22775 21.9485 5.64856 21.9485C3.12245 21.9485 5.64856 18.7909 5.64856 18.7909L5.64856 18.7909Z" transform="translate(315.5152 389.95068)" id="XMLID_320_" fill="#FFFFFF" fill-rule="evenodd" stroke="none" />
    <path d="M1.12262 2.92369C1.12262 2.92369 11.0164 -1.60218 25.7519 0.608109C40.4873 2.92369 44.1712 2.92369 44.1712 2.92369L39.8558 21.9745C39.8558 21.9745 3.64872 21.9745 1.12268 21.9745C-1.40342 21.9745 1.12268 18.8169 1.12268 18.8169L1.12262 2.92369L1.12262 2.92369L1.12262 2.92369Z" transform="translate(315.51532 389.92462)" id="XMLID_21_" fill="none" fill-rule="evenodd" stroke="#46133C" stroke-width="3" stroke-linecap="round" stroke-linejoin="round" />
    <g id="XMLID_70_" transform="translate(157.69293 92.02954)">
      <path d="M12.7356 2.10506L0 0" transform="translate(0.433758 14.635544)" id="XMLID_72_" fill="none" fill-rule="evenodd" stroke="#46133C" stroke-width="3" stroke-linecap="round" stroke-linejoin="round" />
      <path d="M32.115 39.2648L12.6431 38.0017C5.27541 37.5807 -0.302995 30.7392 0.0127519 22.9505L0.433758 13.7935C0.854764 5.8995 7.06469 -0.205187 14.4324 0.00531598L33.9042 0.636841C41.5877 0.847344 47.6924 7.6888 47.2714 15.8985L46.8504 25.4766C46.4294 33.5811 39.7984 39.791 32.115 39.2648L32.115 39.2648Z" id="XMLID_10_" fill="none" fill-rule="evenodd" stroke="#46133C" stroke-width="3" stroke-linecap="round" stroke-linejoin="round" />
      <path d="M27.5718 38.6766L10.3103 36.3611C3.78462 35.519 -0.74125 28.6776 0.100763 21.2046L1.15329 12.4686C1.99531 4.99564 7.99475 -0.582766 14.5205 0.0487432L31.782 1.7328C38.6234 2.36433 43.5703 9.31102 42.623 17.0997L41.5705 26.2568C40.7285 34.0455 34.4133 39.6239 27.5718 38.6766L27.5718 38.6766Z" transform="translate(54.643616 3.7457242)" id="XMLID_11_" fill="none" fill-rule="evenodd" stroke="#46133C" stroke-width="3" stroke-linecap="round" stroke-linejoin="round" />
      <path d="M36.6281 3.78912L0 0" transform="translate(97.16141 15.89853)" id="XMLID_15_" fill="none" fill-rule="evenodd" stroke="#46133C" stroke-width="3" stroke-linecap="round" stroke-linejoin="round" />
      <path d="M0 1.01614C0 1.01614 4.21012 -1.40467 7.47298 1.22666" transform="translate(47.797665 14.987651)" id="XMLID_45_" fill="none" fill-rule="evenodd" stroke="#46133C" stroke-width="4" stroke-linecap="round" stroke-linejoin="round" />
    </g>
    <path d="M0.32307 6.64198C0.32307 6.64198 6.11199 -3.77807 11.3746 1.48459C16.6373 6.74724 16.0058 19.1671 9.58533 30.3239C5.05946 38.0074 -1.78199 34.6393 0.428297 30.3239" transform="translate(285.7915 111.70618)" id="XMLID_44_" fill="#FFAB91" fill-rule="evenodd" stroke="none" />
    <path d="M0.32307 6.64198C0.32307 6.64198 6.11199 -3.77807 11.3746 1.48459C16.6373 6.74724 16.0058 19.1671 9.58533 30.3239C5.05946 38.0074 -1.78199 34.6393 0.428297 30.3239" transform="translate(285.7915 111.70618)" id="XMLID_91_" fill="#FFAB91" fill-rule="evenodd" stroke="none" />
    <path d="M7.68354 1.50572C4.94695 -1.23087 2.21036 0.242672 0.105292 2.13725C1.26308 2.03199 2.42088 2.45299 3.57863 3.61079C8.8413 8.87344 8.20977 21.2933 1.78932 32.4501C1.26305 33.3974 0.631526 34.2395 0 34.8709C1.89454 34.7657 4.10487 33.3974 5.89419 30.2398C12.3147 19.1883 12.9462 6.76838 7.68354 1.50572L7.68354 1.50572Z" transform="translate(289.37732 111.685)" id="XMLID_156_" fill="#FFAB91" fill-opacity="0.43" fill-rule="evenodd" stroke="none" />
    <path d="M3.36811 5.15965C3.36811 5.15965 8.73603 -3.57635 13.9987 1.6863C19.2613 6.94896 18.6298 19.3688 12.2094 30.5257C7.6835 38.2091 0 35.7883 0 29.2626" transform="translate(283.06213 111.504456)" id="XMLID_2_" fill="none" fill-rule="evenodd" stroke="#46133C" stroke-width="3" stroke-linecap="round" stroke-linejoin="round" />
    <g id="XMLID_48_" transform="translate(263.2746 326.01257)">
      <path d="M0 4.73639C0 2.12055 1.83781 0 4.10487 0C6.37193 0 8.20975 2.12055 8.20975 4.73639C8.20975 7.35222 6.37193 9.47278 4.10487 9.47278C1.83781 9.47278 0 7.35222 0 4.73639Z" id="XMLID_47_" fill="#46133C" fill-rule="evenodd" stroke="none" />
      <path d="M0 4.73639C0 2.12055 1.83781 0 4.10487 0C6.37193 0 8.20975 2.12055 8.20975 4.73639C8.20975 7.35222 6.37193 9.47278 4.10487 9.47278C1.83781 9.47278 0 7.35222 0 4.73639Z" id="XMLID_46_" fill="none" fill-rule="evenodd" stroke="#46133C" stroke-width="4" stroke-linecap="round" stroke-linejoin="round" />
    </g>
    <g id="XMLID_50_" transform="translate(245.80255 301.59387)">
      <path d="M0 4.73639C0 2.12055 1.83781 0 4.10487 0C6.37193 0 8.20975 2.12055 8.20975 4.73639C8.20975 7.35222 6.37193 9.47278 4.10487 9.47278C1.83781 9.47278 0 7.35222 0 4.73639Z" id="XMLID_52_" fill="#46133C" fill-rule="evenodd" stroke="none" />
      <path d="M0 4.73639C0 2.12055 1.83781 0 4.10487 0C6.37193 0 8.20975 2.12055 8.20975 4.73639C8.20975 7.35222 6.37193 9.47278 4.10487 9.47278C1.83781 9.47278 0 7.35222 0 4.73639Z" id="XMLID_51_" fill="none" fill-rule="evenodd" stroke="#46133C" stroke-width="4" stroke-linecap="round" stroke-linejoin="round" />
    </g>
    <path d="M0 0C0 0 4.10486 0.736783 5.78891 4.9469" transform="translate(275.06293 275.4911)" id="XMLID_53_" fill="none" fill-rule="evenodd" stroke="#46133C" stroke-width="3" stroke-linecap="round" stroke-linejoin="round" />
    <path d="M0 7.05197C0 7.05197 0.947274 1.26305 5.15741 0" transform="translate(288.95636 123.18982)" id="XMLID_67_" fill="none" fill-rule="evenodd" stroke="#46133C" stroke-width="3" stroke-linecap="round" stroke-linejoin="round" />
    <g id="XMLID_141_" transform="translate(176.08362 5.4732056)">
      <path d="M46.1423 43.9342C46.1423 43.9342 45.0897 43.9342 43.4057 43.3026C42.5637 42.9869 41.6164 42.5659 40.4586 41.9344C39.4061 41.3028 38.143 40.6713 36.88 39.8293C36.2485 39.4083 35.5117 38.9873 34.8802 38.5663C34.2487 38.1453 33.5119 37.619 32.7751 37.198C31.3016 36.2507 29.8281 35.0929 28.3545 33.9351C27.6177 33.3036 26.881 32.7773 26.0389 32.1458C25.3021 31.5143 24.5654 30.8828 23.8286 30.2513C22.355 28.9882 20.8815 27.5147 19.4079 26.1464C18.6712 25.4096 17.9344 24.6728 17.3029 24.0413C16.5661 23.3046 15.9346 22.5678 15.1978 21.831C13.8295 20.3575 12.5665 18.8839 11.3034 17.4104C10.1456 15.9368 8.98786 14.4633 7.93532 13.095C6.88279 11.7267 5.93552 10.3584 5.09348 9.20062C4.25146 7.93759 3.51468 6.7798 2.88315 5.72727C2.25163 4.67474 1.72536 3.72746 1.30436 2.99068C0.462345 1.41188 0.0413072 0.46461 0.0413072 0.46461C-0.0639523 0.254107 0.0413072 0.0436039 0.251826 0.0436039C0.357086 -0.0616557 0.567573 0.0436039 0.672832 0.148863L0.672832 0.148863C0.672832 0.148863 1.40962 0.885632 2.56738 2.25393C3.09364 2.88545 3.83043 3.72746 4.56718 4.67475C5.30396 5.62202 6.25124 6.67455 7.09325 7.83235C8.04052 8.99014 8.98779 10.2532 10.0403 11.6215C11.0929 12.8845 12.2506 14.3581 13.5137 15.7263C14.7767 17.0946 16.0397 18.5682 17.408 19.9365C18.0396 20.6732 18.7763 21.3048 19.4078 22.0415C20.1446 22.7783 20.7761 23.4098 21.5129 24.1466C22.2497 24.8834 22.9864 25.5149 23.618 26.1464C24.3548 26.7779 24.9862 27.5147 25.8283 28.1462C26.5651 28.7777 27.3018 29.4092 28.0386 30.0407C28.7754 30.6723 29.5122 31.1985 30.2489 31.83C30.9857 32.4616 31.7225 32.9878 32.354 33.5141C33.0908 34.0404 33.7223 34.5666 34.4591 35.0929C35.1958 35.6192 35.8273 36.0402 36.4589 36.5664C37.0904 36.9874 37.7219 37.4085 38.3534 37.8295C39.6165 38.6715 40.7742 39.303 41.7215 39.9345C42.7741 40.5661 43.6161 41.0923 44.3528 41.6186C45.8264 42.6711 46.4579 43.5131 46.4579 43.5131C46.5632 43.6184 46.5632 43.8289 46.3527 44.0394C46.2475 43.9342 46.2475 43.9342 46.1423 43.9342L46.1423 43.9342Z" id="XMLID_110_" fill="#46133C" fill-rule="evenodd" stroke="none" />
    </g>
    <g id="XMLID_134_" transform="translate(228.01483 52.170166)">
      <path d="M24.7345 4.28908C24.7345 4.28908 24.4187 4.81534 23.6819 5.13111C23.3662 5.34161 22.9452 5.34161 22.4189 5.34161C21.8926 5.34161 21.3664 5.44687 20.7348 5.44687C18.314 5.55213 15.1564 5.55213 11.8936 5.13111C10.3148 4.9206 8.73599 4.60484 7.26246 4.28908C6.52567 4.07857 5.78892 3.86807 5.1574 3.76281C4.52587 3.55231 3.89435 3.34181 3.26285 3.13129C2.73659 2.92078 2.21032 2.71028 1.68406 2.60502C1.26305 2.39452 0.842044 2.07876 0.631525 1.86825C0.421006 1.55249 0.210519 1.23673 0.10526 1.02622C0 0.815721 0 0.605218 0 0.605218C0 0.605218 0.10526 0.499959 0.421006 0.394715C0.631525 0.289456 0.947272 0.184212 1.36828 0.0789527C1.78928 -0.0263069 2.21029 -0.0263069 2.63133 0.0789527C3.05233 0.184212 3.5786 0.289456 4.10486 0.499959C4.63113 0.605218 5.26265 0.815721 5.89418 0.920965C6.52571 1.02622 7.15723 1.23673 7.89398 1.34197C8.63077 1.44723 9.36752 1.65773 10.1043 1.76298C10.8411 1.86824 11.5778 1.97348 12.3146 2.07874C13.7882 2.28924 15.367 2.49975 16.7353 2.60501C18.2088 2.71026 19.4719 2.81551 20.6296 2.92077C21.1559 2.92077 21.6822 2.92077 22.2084 2.92077C22.6294 2.92077 23.0505 2.92077 23.4715 3.13127C23.7872 3.23653 24.103 3.44703 24.3135 3.55228C24.524 3.65754 24.6293 3.76278 24.6293 3.76278C24.8397 3.86807 24.8397 4.18382 24.7345 4.28908L24.7345 4.28908Z" id="XMLID_108_" fill="#46133C" fill-rule="evenodd" stroke="none" />
    </g>
    <g id="XMLID_140_" transform="translate(193.55573 0)">
      <path d="M80.9809 44.0394C80.9809 44.0394 79.5074 44.7762 76.8761 45.1972C75.5078 45.4077 73.929 45.513 72.0344 45.4077C70.1399 45.3025 68.0348 45.1972 65.8245 44.9867C63.5089 44.7762 61.0881 44.3552 58.4568 43.8289C55.9307 43.3027 53.1941 42.6711 50.4576 41.8291C49.0893 41.4081 47.721 40.8819 46.3527 40.4608C44.9844 39.9346 43.6161 39.4083 42.1426 38.7768C40.7743 38.1453 39.406 37.619 38.0377 36.8822C37.4062 36.5665 36.6694 36.2507 36.0379 35.8297L34.0381 34.6719C31.4068 33.1984 28.7754 31.5143 26.3546 29.725C25.0916 28.883 23.9338 27.9357 22.776 27.0937C21.6182 26.1464 20.5657 25.1991 19.4079 24.3571C17.3028 22.4625 15.1978 20.568 13.4085 18.6734C12.4612 17.7262 11.6192 16.7789 10.7771 15.9368C9.93513 14.9896 9.09308 14.1475 8.46156 13.3055C6.98802 11.5162 5.61971 9.93741 4.67244 8.35861C3.61991 6.88507 2.67264 5.51678 2.04111 4.35899C0.672832 2.04342 0.0413072 0.675129 0.0413072 0.675129C-0.0639523 0.464626 0.0413072 0.148863 0.251826 0.0436039C0.462345 -0.0616557 0.672832 0.0436039 0.778092 0.148863L0.778092 0.148863C0.778092 0.148863 1.83062 1.30665 3.51468 3.30646C4.35669 4.35899 5.40922 5.51678 6.56701 6.99032C7.7248 8.46385 9.09308 9.93741 10.4614 11.6214C11.1982 12.4635 12.0402 13.3055 12.777 14.1475C13.619 14.9895 14.461 15.9368 15.4083 16.7788C17.1976 18.5681 19.1974 20.3574 21.3025 22.252C22.355 23.094 23.5128 24.0413 24.5653 24.8833C25.7231 25.7254 26.8809 26.5674 28.0387 27.4094C30.4595 29.0935 32.9856 30.6723 35.5117 32.0405C36.7747 32.7773 38.143 33.4088 39.406 34.1456C40.6691 34.7771 42.0374 35.4086 43.4056 36.0402C44.7739 36.6717 46.037 37.0927 47.4052 37.619C48.7735 38.04 50.0366 38.5662 51.4049 38.9872C54.0362 39.8293 56.6675 40.566 59.0883 41.0923C61.6144 41.6186 63.93 42.0396 66.1403 42.3553C68.3506 42.6711 70.3504 42.8816 72.1397 42.9869C73.929 43.0921 75.5078 43.1974 76.7709 43.3026C79.4022 43.6184 80.8757 43.9342 80.8757 43.9342C80.9809 43.8289 80.9809 43.9342 80.9809 44.0394C80.9809 43.9342 80.9809 44.0394 80.9809 44.0394L80.9809 44.0394Z" id="XMLID_100_" fill="#46133C" fill-rule="evenodd" stroke="none" />
    </g>
    <g id="XMLID_5_" transform="translate(0 224.4433)">
      <path d="M38.9833 19.1047C41.6147 2.36942 19.722 -4.26155 11.0912 2.79042C6.77586 25.6304 -11.1172 39.8395 10.3545 48.6808C23.1954 53.9434 24.0374 45.6285 30.7736 52.4699C39.7201 61.4164 46.1405 64.995 46.1405 64.995L64.5598 48.6808C60.1392 45.4179 36.4573 35.1031 38.9833 19.1047L38.9833 19.1047Z" transform="translate(70.09541 19.312763)" id="XMLID_90_" fill="#FFAB91" fill-rule="evenodd" stroke="none" />
      <path d="M34.7732 48.8374C26.9845 39.6804 25.0899 43.8905 15.8276 40.8382C-5.64399 33.5757 7.40739 21.5769 12.7753 0C12.1438 0.315746 11.6175 0.736785 11.0912 1.05253C6.77586 23.8925 -11.1172 38.1016 10.3545 46.9429C23.1954 52.2055 24.0374 43.8906 30.7736 50.732C39.7201 59.6785 46.1405 63.2571 46.1405 63.2571L49.2981 60.4153C48.1404 59.889 42.3514 57.7839 34.7732 48.8374L34.7732 48.8374Z" transform="translate(70.09541 20.945395)" id="XMLID_113_" fill="#FFAB91" fill-opacity="0.43" fill-rule="evenodd" stroke="none" />
      <path d="M25.4712 17.538C24.2082 34.4838 45.2588 45.7458 55.5736 49.9559L53.4686 48.1666C49.1532 44.9038 25.366 34.589 27.8921 18.5905C30.4182 2.90779 9.6833 -3.93366 0 2.27627C8.31496 -2.77587 26.4185 3.22357 25.4712 17.538L25.4712 17.538Z" transform="translate(81.1867 19.826824)" id="XMLID_157_" fill="#FFFFFF" fill-rule="evenodd" stroke="none" />
      <path d="M39.6657 19.1047C42.297 2.36942 20.4044 -4.26155 11.7736 2.79042C4.82688 7.94782 -10.4348 39.8395 11.0368 48.6808C23.8777 53.9434 24.7197 45.6285 31.4559 52.4699C40.4024 61.4164 46.8229 64.995 46.8229 64.995L65.2422 48.6808C60.8216 45.4179 37.1396 35.1031 39.6657 19.1047L39.6657 19.1047Z" transform="translate(69.41304 19.312763)" id="XMLID_87_" fill="none" fill-rule="evenodd" stroke="#46133C" stroke-width="3" stroke-linecap="round" stroke-linejoin="round" />
      <g id="XMLID_66_">
        <path d="M14.2092 0L0 0L0 7.47298L14.2092 7.47298C17.5773 7.47298 20.3138 10.6306 20.3138 14.4197L20.3138 26.4185C20.3138 30.3129 17.5773 33.3652 14.2092 33.3652L0 33.3652L0 40.8382L14.2092 40.8382C21.1559 40.8382 26.7343 34.4178 26.7343 26.4185L26.7343 14.4197C26.7343 6.42045 21.1559 0 14.2092 0L14.2092 0Z" transform="translate(51.715816 11.788298)" id="XMLID_24_" fill="#A8DDEF" fill-rule="evenodd" stroke="none" />
        <path d="M14.2092 0L0 0L0 7.47298L14.2092 7.47298C17.5773 7.47298 20.3138 10.6306 20.3138 14.4197L20.3138 26.4185C20.3138 30.3129 17.5773 33.3652 14.2092 33.3652L0 33.3652L0 40.8382L14.2092 40.8382C21.1559 40.8382 26.7343 34.4178 26.7343 26.4185L26.7343 14.4197C26.7343 6.42045 21.1559 0 14.2092 0L14.2092 0Z" transform="translate(51.715816 11.788298)" id="XMLID_54_" fill="#939EC5" fill-opacity="0.42" fill-rule="evenodd" stroke="none" />
        <path d="M14.2092 0L0 0L0 7.47298L12.9461 7.47298C16.3142 7.47298 19.0508 10.6306 19.0508 14.4197L19.0508 26.4185C19.0508 30.3129 16.3142 33.3652 12.9461 33.3652L0 33.3652L0 40.8382L14.2092 40.8382C21.1559 40.8382 26.7343 34.4178 26.7343 26.4185L26.7343 14.4197C26.7343 6.42045 21.1559 0 14.2092 0L14.2092 0Z" transform="translate(51.715816 11.788298)" id="XMLID_84_" fill="none" fill-rule="evenodd" stroke="#46133C" stroke-width="3" stroke-linecap="round" stroke-linejoin="round" />
        <path d="M2.14155 0C-0.910783 12.5251 -0.70028 27.0501 2.77308 39.5752C5.61491 49.469 10.8776 56.9419 16.1402 61.7836L45.9269 61.7836C51.2948 57.0472 56.5574 49.5742 59.294 39.5752C62.8726 27.0501 62.9779 12.5251 59.9255 0L2.14155 0L2.14155 0Z" id="XMLID_33_" fill="#A8DDEF" fill-rule="evenodd" stroke="none" />
        <path d="M2.14155 0C-0.910783 12.5251 -0.70028 27.0501 2.77308 39.5752C5.61491 49.469 10.8776 56.9419 16.1402 61.7836L45.9269 61.7836C51.2948 57.0472 56.5574 49.5742 59.294 39.5752C62.8726 27.0501 62.9779 12.5251 59.9255 0L2.14155 0L2.14155 0Z" id="XMLID_34_" fill="#A8DDEF" fill-rule="evenodd" stroke="none" />
        <path d="M6.35168 39.5752C2.77308 27.0501 2.66782 12.5251 5.72015 0L2.14155 0C-0.910783 12.5251 -0.70028 27.0501 2.77308 39.5752C5.61491 49.469 10.8776 56.9419 16.1402 61.7836L19.7188 61.7836C14.4562 56.9419 9.08827 49.469 6.35168 39.5752L6.35168 39.5752Z" transform="translate(0.10529168 0.10522742)" id="XMLID_166_" fill="#FFFFFF" fill-rule="evenodd" stroke="none" />
        <path d="M25.4712 0L15.5775 0C18.5245 13.4724 18.9456 30.8391 15.5775 42.1012C13.1566 50.1005 6.7362 61.0468 0 61.7836L11.3673 61.7836C16.7352 57.0472 21.9979 49.5742 24.7345 39.5752C28.3131 27.05 28.4183 12.5251 25.4712 0L25.4712 0Z" transform="translate(34.664795 0)" id="XMLID_116_" fill="#939EC5" fill-opacity="0.42" fill-rule="evenodd" stroke="none" />
        <path d="M2.14155 0C-0.910783 12.5251 -0.70028 27.0501 2.77308 39.5752C5.61491 49.469 10.8776 56.9419 16.1402 61.7836L45.9269 61.7836C51.2948 57.0472 56.5574 49.5742 59.294 39.5752C62.8726 27.0501 62.9779 12.5251 59.9255 0L2.14155 0L2.14155 0Z" id="XMLID_41_" fill="none" fill-rule="evenodd" stroke="#46133C" stroke-width="3" stroke-linecap="round" stroke-linejoin="round" />
      </g>
      <path d="M8.48154 11.1266C16.3755 10.1793 19.9541 4.60087 15.5335 1.02227C13.4284 -0.767042 4.27141 -0.0302577 1.21908 1.86429C-2.04378 3.96935 1.53482 11.9686 8.48154 11.1266L8.48154 11.1266Z" transform="translate(65.5479 49.920193)" id="XMLID_86_" fill="#FFAB91" fill-rule="evenodd" stroke="none" />
      <path d="M8.48154 11.1266C16.3755 10.1793 19.9541 4.60087 15.5335 1.02227C13.4284 -0.767042 4.27141 -0.0302577 1.21908 1.86429C-2.04378 3.96935 1.53482 11.9686 8.48154 11.1266L8.48154 11.1266Z" transform="translate(65.5479 49.920193)" id="XMLID_18_" fill="none" fill-rule="evenodd" stroke="#46133C" stroke-width="3" stroke-linecap="round" stroke-linejoin="round" />
      <path d="M5.07944 11.6935C11.2894 11.1672 16.4468 8.85166 15.1837 4.7468C14.2365 1.69446 5.81622 -1.9894 1.71136 1.27346C-1.13049 3.58904 -0.709482 12.1145 5.07944 11.6935L5.07944 11.6935Z" transform="translate(62.213764 32.723286)" id="XMLID_82_" fill="#FFAB91" fill-rule="evenodd" stroke="none" />
      <path d="M5.07944 11.6935C11.2894 11.1672 16.4468 8.85166 15.1837 4.7468C14.2365 1.69446 5.81622 -1.9894 1.71136 1.27346C-1.13049 3.58904 -0.709482 12.1145 5.07944 11.6935L5.07944 11.6935Z" transform="translate(62.213764 32.723286)" id="XMLID_88_" fill="none" fill-rule="evenodd" stroke="#46133C" stroke-width="3" stroke-linecap="round" stroke-linejoin="round" />
      <path d="M6.23322 12.7192C17.2848 14.0874 23.6 7.14075 14.864 2.19384C10.9696 -0.0164779 3.91767 -1.2795 1.07582 1.98332C-1.76603 5.35144 1.39157 12.1929 6.23322 12.7192L6.23322 12.7192Z" transform="translate(61.902065 19.593498)" id="XMLID_85_" fill="#FFAB91" fill-rule="evenodd" stroke="none" />
      <path d="M6.23322 12.7192C17.2848 14.0874 23.6 7.14075 14.864 2.19384C10.9696 -0.0164779 3.91767 -1.2795 1.07582 1.98332C-1.76603 5.35144 1.39157 12.1929 6.23322 12.7192L6.23322 12.7192Z" transform="translate(61.902065 19.593498)" id="XMLID_25_" fill="none" fill-rule="evenodd" stroke="#46133C" stroke-width="3" stroke-linecap="round" stroke-linejoin="round" />
      <path d="M11.7884 35.7598C11.7884 35.7598 6.1047 30.2867 8.1045 22.8137C10.1043 15.3408 11.7884 13.0252 11.7884 13.0252C11.7884 13.0252 0 15.2355 0 10.4991C0 5.76274 3.05233 -1.81549 17.5773 0.394828" transform="translate(77.29225 19.498035)" id="XMLID_23_" fill="#FFAB91" fill-rule="evenodd" stroke="none" />
      <path d="M13.3784 35.7661C13.3784 35.7661 8.95776 30.5034 9.69454 22.82C10.4313 15.347 14.6415 12.6104 14.6415 12.6104C14.6415 12.6104 1.16907 16.2943 0.116534 11.6631C-0.935998 7.03199 5.06344 -3.28283 21.2724 1.03255" transform="translate(75.70228 19.491804)" id="XMLID_83_" fill="none" fill-rule="evenodd" stroke="#46133C" stroke-width="3" stroke-linecap="round" stroke-linejoin="round" />
    </g>
    <path d="M0 1.57879C0 1.57879 4.42065 2.52607 6.94672 0" transform="translate(210.64807 180.13177)" id="XMLID_128_" fill="none" fill-rule="evenodd" stroke="#46133C" stroke-width="3" stroke-linecap="round" stroke-linejoin="round" />
    <g id="XMLID_103_" transform="translate(113.28888 286.22687)">
      <path d="M0 27.682C0 27.682 9.26227 37.3653 13.5777 41.6806C19.3666 40.6281 15.788 44.2067 19.3666 40.6281C22.9452 37.0495 49.048 14.8411 49.048 14.8411L29.0499 0.000385448C29.0499 -0.104874 0 21.8931 0 27.682L0 27.682Z" transform="translate(0 0.10484197)" id="XMLID_40_" fill="#FF3B61" fill-rule="evenodd" stroke="none" />
      <g id="XMLID_148_" transform="translate(0 12.630373)">
        <g id="Group">
          <path d="M18.2088 25.0502C15.1564 23.4714 4.63113 11.0516 4.63113 11.0516C4.63113 8.94651 8.52551 4.63113 13.4724 0C6.52568 5.99944 0 12.4199 0 15.1564C0 15.1564 9.26227 24.8397 13.5777 29.1551C19.3666 28.1026 15.788 31.6812 19.3666 28.1026C19.8928 27.5763 20.8401 26.7343 22.1032 25.5765C21.7874 25.4712 21.2612 26.5238 18.2088 25.0502L18.2088 25.0502Z" id="XMLID_193_" fill="#EE406D" fill-rule="evenodd" stroke="none" />
          <path d="M0 20.9454C8.736 13.2619 24.2082 0.10526 24.2082 0.10526L24.103 0C17.051 6.10467 4.10487 17.1562 0 20.9454L0 20.9454Z" transform="translate(24.945011 2.1050622)" id="XMLID_192_" fill="#EE406D" fill-rule="evenodd" stroke="none" />
        </g>
      </g>
      <path d="M11.8936 0C11.8936 0 10.6306 0.947272 8.73603 2.42081L28.6289 17.2615C28.6289 17.2615 5.99944 36.5228 0 42.1012C0.421006 42.5223 0.210519 42.7328 2.21032 40.733C5.78892 37.1544 31.8917 14.946 31.8917 14.946L11.8936 0L11.8936 0Z" transform="translate(17.156252 0)" id="XMLID_153_" fill="#FFFFFF" fill-rule="evenodd" stroke="none" />
      <path d="M0 27.682C0 27.682 14.1039 45.8907 19.3666 40.6281C22.9452 37.0495 49.048 14.8411 49.048 14.8411L29.0499 0.000385448C29.0499 -0.104874 0 21.8931 0 27.682L0 27.682Z" transform="translate(0 0.10484197)" id="XMLID_35_" fill="none" fill-rule="evenodd" stroke="#46133C" stroke-width="3" stroke-linecap="round" stroke-linejoin="round" />
    </g>
    <path d="M3.54341 0C3.54341 0 -2.03501 10.3148 0.806824 18.5246C3.64865 26.6291 6.59575 30.5234 3.54341 36.4176" transform="translate(17.122742 170.13269)" id="XMLID_22_" fill="none" fill-rule="evenodd" stroke="#46133C" stroke-width="3" stroke-linecap="round" stroke-linejoin="round" />
  </g>
</svg>