<?xml version="1.0" encoding="utf-8"?>
<svg width="612px" height="734px" viewbox="0 0 612 734" version="1.1" xmlns:xlink="http://www.w3.org/1999/xlink" xmlns="http://www.w3.org/2000/svg">
  <defs>
    <path d="M0 0L801.346 0L801.346 713.406L0 713.406L0 0Z" id="path_1" />
    <clipPath id="mask_1">
      <use xlink:href="#path_1" />
    </clipPath>
  </defs>
  <g id="Group-3-Copy" transform="translate(-47 0)">
    <g id="tim-Copy-3" transform="translate(41.941772 21.33664)">
      <path d="M0 0L801.346 0L801.346 713.406L0 713.406L0 0Z" id="Background" fill="none" fill-rule="evenodd" stroke="none" />
      <g clip-path="url(#mask_1)">
        <g id="Group" transform="translate(120.51498 127.18848)">
          <path d="M411.418 12.6122C331.154 12.6122 249.55 40.8195 191.542 91.2689C137.602 82.875 70.8831 66.0869 45.8994 48.0206C35.0826 40.8622 27.7119 35.4509 27.7119 30.0394C27.7119 24.6707 32.4023 18.0236 42.5011 8.43655C43.8412 7.24349 43.8412 6.09302 43.8412 4.26086C43.8412 2.42869 43.8412 0 39.773 0L37.0928 0C17.4695 0 0 15.0411 0 28.2073C0 51.6423 26.9939 69.666 49.2495 80.4889C78.8757 94.8908 122.717 112.915 163.208 124.93C126.115 175.38 101.801 226.383 101.801 286.419C101.801 342.834 128.795 420.851 170.578 468.361C180.677 479.184 195.514 486.981 210.351 488.174C217.148 488.174 219.206 485.745 219.206 482.124C219.206 477.351 214.42 472.494 207.719 463.503C176.657 422.045 160.528 377.049 160.528 324.171C160.528 258.766 184.123 190.293 219.876 136.904C240.791 140.44 261.659 142.272 281.857 142.272C349.964 142.272 453.823 108.611 453.823 32.3831C453.871 13.8053 428.265 12.6122 411.418 12.6122L411.418 12.6122ZM285.973 99.6202C278.506 99.6202 269.748 99.6202 261.707 99.0237C287.361 81.639 321.055 69.0268 351.399 62.4223C360.828 60.6327 380.356 56.457 397.251 56.457C374.325 90.0332 330.484 99.6202 285.973 99.6202L285.973 99.6202Z" id="Shape" fill="#8B00C5" fill-rule="evenodd" stroke="none" />
          <path d="M135.496 0C112.57 33.576 68.7292 43.1632 24.2658 43.1632C16.7995 43.1632 8.0407 43.1632 0 42.5667C25.6537 25.1821 59.3484 12.5698 89.6925 5.96527C99.0734 4.1331 118.649 0 135.496 0L135.496 0Z" transform="translate(261.70682 56.456985)" id="Shape" fill="none" fill-rule="evenodd" stroke="none" />
        </g>
        <path d="M801.298 647.532C801.298 683.921 768.177 713.364 727.304 713.364L73.946 713.364C33.0722 713.364 0 683.921 0 647.532L0 65.8312C0 29.4429 33.1202 0 73.946 0L727.304 0C768.178 0 801.298 29.4856 801.298 65.8312L801.298 647.532L801.298 647.532Z" transform="translate(0.04827301 0.042648636)" id="Shape" fill="none" fill-rule="evenodd" stroke="none" />
      </g>
    </g>
    <g id="tim-Copy-2">
      <path d="M0 0L801.346 0L801.346 713.406L0 713.406L0 0Z" id="Background" fill="none" fill-rule="evenodd" stroke="none" />
      <g clip-path="url(#mask_1)">
        <g id="Group" transform="translate(120.51498 127.18848)">
          <path d="M411.418 12.6122C331.154 12.6122 249.55 40.8195 191.542 91.2689C137.602 82.875 70.8831 66.0869 45.8994 48.0206C35.0826 40.8622 27.7119 35.4509 27.7119 30.0394C27.7119 24.6707 32.4023 18.0236 42.5011 8.43655C43.8412 7.24349 43.8412 6.09302 43.8412 4.26086C43.8412 2.42869 43.8412 0 39.773 0L37.0928 0C17.4695 0 0 15.0411 0 28.2073C0 51.6423 26.9939 69.666 49.2495 80.4889C78.8757 94.8908 122.717 112.915 163.208 124.93C126.115 175.38 101.801 226.383 101.801 286.419C101.801 342.834 128.795 420.851 170.578 468.361C180.677 479.184 195.514 486.981 210.351 488.174C217.148 488.174 219.206 485.745 219.206 482.124C219.206 477.351 214.42 472.494 207.719 463.503C176.657 422.045 160.528 377.049 160.528 324.171C160.528 258.766 184.123 190.293 219.876 136.904C240.791 140.44 261.659 142.272 281.857 142.272C349.964 142.272 453.823 108.611 453.823 32.3831C453.871 13.8053 428.265 12.6122 411.418 12.6122L411.418 12.6122ZM285.973 99.6202C278.506 99.6202 269.748 99.6202 261.707 99.0237C287.361 81.639 321.055 69.0268 351.399 62.4223C360.828 60.6327 380.356 56.457 397.251 56.457C374.325 90.0332 330.484 99.6202 285.973 99.6202L285.973 99.6202Z" id="Shape" fill="#00C57C" fill-rule="evenodd" stroke="none" />
          <path d="M135.496 0C112.57 33.576 68.7292 43.1632 24.2658 43.1632C16.7995 43.1632 8.0407 43.1632 0 42.5667C25.6537 25.1821 59.3484 12.5698 89.6925 5.96527C99.0734 4.1331 118.649 0 135.496 0L135.496 0Z" transform="translate(261.70682 56.456985)" id="Shape" fill="none" fill-rule="evenodd" stroke="none" />
        </g>
        <path d="M801.298 647.532C801.298 683.921 768.177 713.364 727.304 713.364L73.946 713.364C33.0722 713.364 0 683.921 0 647.532L0 65.8312C0 29.4429 33.1202 0 73.946 0L727.304 0C768.178 0 801.298 29.4856 801.298 65.8312L801.298 647.532L801.298 647.532Z" transform="translate(0.04827301 0.042648636)" id="Shape" fill="none" fill-rule="evenodd" stroke="none" />
      </g>
    </g>
  </g>
</svg>